<?xml version="1.0" standalone="no"?>
<!DOCTYPE svg PUBLIC "-//W3C//DTD SVG 20010904//EN"
 "http://www.w3.org/TR/2001/REC-SVG-20010904/DTD/svg10.dtd">
<svg version="1.0" xmlns="http://www.w3.org/2000/svg"
 width="167.000000pt" height="164.000000pt" viewBox="0 0 167.000000 164.000000"
 preserveAspectRatio="xMidYMid meet">

<g transform="translate(0.000000,164.000000) scale(0.100000,-0.100000)"
fill="#000000" stroke="none">
<path d="M680 1402 c0 -5 11 -15 25 -22 26 -14 25 -30 -4 -30 -9 0 -55 -18
-101 -40 -161 -79 -275 -226 -316 -408 -56 -250 76 -518 312 -633 74 -36 189
-68 201 -55 10 10 -9 26 -30 26 -43 1 -163 51 -229 96 -189 129 -276 363 -218
588 26 103 62 166 139 249 51 53 82 76 145 106 45 22 94 42 109 45 l29 7 -21
-30 c-23 -32 -26 -41 -11 -41 5 0 25 21 44 46 l36 47 -45 28 c-47 30 -65 35
-65 21z"/>
<path d="M1006 1343 c-13 -13 -4 -20 44 -37 311 -112 451 -505 282 -796 -50
-87 -175 -199 -256 -230 l-26 -10 16 31 c9 18 12 35 7 40 -5 5 -20 -14 -35
-45 l-27 -54 49 -21 c27 -12 53 -21 59 -21 22 0 10 18 -20 30 l-31 13 59 31
c75 40 179 139 223 212 59 98 79 174 80 296 0 87 -5 122 -25 185 -55 172 -186
308 -356 368 -20 8 -40 11 -43 8z"/>
<path d="M529 1001 c-47 -48 -38 -125 18 -154 l26 -14 -35 -12 c-72 -24 -128
-103 -128 -181 l0 -40 130 0 130 0 0 -25 0 -25 185 0 185 0 0 25 0 25 130 0
130 0 0 38 c0 20 -9 55 -19 77 -21 46 -83 105 -111 105 -27 0 -34 17 -10 25
26 8 50 55 50 95 0 43 -47 90 -90 90 -99 0 -144 -98 -76 -166 l34 -34 -36 -16
c-20 -8 -49 -26 -63 -40 -22 -21 -31 -24 -47 -15 -12 6 -31 11 -44 11 -21 0
-20 2 9 20 39 24 53 48 53 95 0 41 -32 80 -75 91 -40 10 -93 -19 -110 -60 -22
-52 -6 -93 50 -128 28 -17 29 -18 7 -18 -13 0 -32 -5 -42 -10 -16 -8 -28 -4
-64 23 -24 19 -57 38 -73 42 -27 7 -27 7 -6 16 32 12 57 56 56 97 -1 27 -9 43
-32 64 -43 39 -92 38 -132 -1z m120 -27 c27 -35 26 -59 -4 -89 -45 -46 -118
-19 -118 43 0 69 80 99 122 46z m509 10 c15 -11 22 -25 22 -50 0 -68 -68 -97
-115 -49 -65 64 18 152 93 99z m-257 -52 c47 -39 17 -122 -45 -122 -37 0 -49
7 -65 37 -17 33 -14 51 14 78 29 30 64 32 96 7z m-236 -148 c18 -8 41 -24 50
-34 17 -18 16 -21 -8 -50 -14 -16 -28 -39 -32 -50 -6 -18 -15 -20 -121 -20
l-114 0 0 28 c0 101 128 172 225 126z m525 -6 c45 -31 69 -66 77 -111 l6 -37
-116 0 -116 0 -17 33 c-9 17 -23 40 -32 50 -14 15 -13 19 4 38 46 52 139 64
194 27z m-250 -56 c39 -29 70 -82 70 -118 l0 -34 -154 0 c-90 0 -157 4 -161
10 -11 18 15 87 43 115 15 15 41 34 57 42 38 17 111 9 145 -15z"/>
</g>
</svg>
